<svg xmlns="http://www.w3.org/2000/svg" viewBox="0 0 2400 900" role="img" aria-labelledby="title desc"><title id="title">Desktop energisation system</title><desc id="desc">A horizontal assembled electrical system showing utility incomer, transformer, HT breaker panel, busbar distribution and three verified project terminals.</desc><defs><linearGradient id="live"><stop stop-color="#580e8f"/><stop offset=".82" stop-color="#c89bea"/><stop offset="1" stop-color="#e0b85b"/></linearGradient><filter id="gl" x="-50%" y="-80%" width="200%" height="260%"><feGaussianBlur stdDeviation="7" result="b"/><feMerge><feMergeNode in="b"/><feMergeNode in="SourceGraphic"/></feMerge></filter><style>.guide{fill:none;stroke:#5b6067;stroke-width:12;opacity:.3;stroke-linecap:round}.live{fill:none;stroke:url(#live);stroke-width:13;filter:url(#gl);opacity:0;stroke-linecap:round}.station{fill:#f3f2ed;stroke:#4e5359;stroke-width:3}.label{font:700 15px system-ui,sans-serif;letter-spacing:.14em;fill:#c89bea}.title{font:700 42px system-ui,sans-serif;fill:#fff}</style></defs><path d="M0 0H2400V900H0Z" fill="#0a090c"/><path d="M0 570H2400" stroke="#29262d" stroke-width="2"/>
<g id="utility" transform="translate(90 118)"><path d="M120 30L45 510M120 30L195 510M65 195H175M55 300H185M40 410H200M15 510H225" fill="none" stroke="#8a8f96" stroke-width="11"/><path d="M70 195L175 300M170 195L55 300M55 300L200 410M185 300L40 410" fill="none" stroke="#555b62" stroke-width="4"/><path d="M30 165H210" stroke="#c6c8cc" stroke-width="15"/><g fill="#580e8f"><ellipse cx="75" cy="185" rx="25" ry="8"/><ellipse cx="120" cy="185" rx="25" ry="8"/><ellipse cx="165" cy="185" rx="25" ry="8"/></g><text x="120" y="575" text-anchor="middle" class="label">UTILITY</text></g>
<g id="transformer" transform="translate(470 245)"><path d="M0 122H410V430H0Z" fill="#777d84" stroke="#34383d" stroke-width="5"/><path d="M0 122L-38 154V406L0 430Z" fill="#555b62"/><path d="M410 122L446 154V406L410 430Z" fill="#454a50"/><g fill="#580e8f" stroke="#2e0650" stroke-width="3"><ellipse cx="90" cy="112" rx="30" ry="10"/><ellipse cx="205" cy="112" rx="30" ry="10"/><ellipse cx="320" cy="112" rx="30" ry="10"/></g><path d="M90 112V28M205 112V28M320 112V28" stroke="#8a8f96" stroke-width="12"/><circle cx="90" cy="18" r="9" fill="#e0b85b"/><circle cx="205" cy="18" r="9" fill="#e0b85b"/><circle cx="320" cy="18" r="9" fill="#e0b85b"/><path d="M35 175H375M35 375H375" stroke="#4e5359" stroke-width="16"/><rect x="132" y="230" width="146" height="86" fill="#25282c" stroke="#c6c8cc" stroke-width="2"/><text x="205" y="275" text-anchor="middle" class="title">TX</text><text x="205" y="480" text-anchor="middle" class="label">TRANSFORM</text></g>
<g id="breaker" transform="translate(1040 247)"><path d="M0 0H310V428H0Z" fill="#666c73" stroke="#34383d" stroke-width="5"/><path d="M0 0H310V58H0Z" fill="#2d3034"/><rect x="45" y="95" width="220" height="95" fill="#222529" stroke="#9ba0a6" stroke-width="3"/><circle cx="96" cy="141" r="19" fill="#eef0f2"/><circle cx="155" cy="141" r="19" fill="#eef0f2"/><circle cx="214" cy="141" r="19" fill="#eef0f2"/><rect x="61" y="238" width="188" height="134" fill="#3b3f45" stroke="#34383d" stroke-width="3"/><circle cx="96" cy="284" r="10" fill="#c89bea"/><circle cx="214" cy="284" r="10" fill="#c89bea"/><path d="M106 277L202 220" stroke="#e0b85b" stroke-width="12" stroke-linecap="round"/><text x="155" y="475" text-anchor="middle" class="label">PROTECT</text></g>
<g id="busbar" transform="translate(1510 226)"><path d="M0 0H330V470H0Z" fill="#34383d" stroke="#777d84" stroke-width="4"/><path d="M65 62V400M130 62V400M195 62V400M260 62V400" stroke="#8a8f96" stroke-width="19"/><g fill="#580e8f"><circle cx="65" cy="130" r="12"/><circle cx="130" cy="205" r="12"/><circle cx="195" cy="280" r="12"/><circle cx="260" cy="355" r="12"/></g><text x="165" y="520" text-anchor="middle" class="label">DISTRIBUTE</text></g>
<g id="terminals" transform="translate(1990 100)"><path d="M0 350C90 350 80 90 160 90H350M0 350H350M0 350C90 350 80 610 160 610H350" fill="none" stroke="#777d84" stroke-width="8"/><g fill="#25282c" stroke="#c89bea" stroke-width="6"><circle cx="370" cy="90" r="30"/><circle cx="370" cy="350" r="30"/><circle cx="370" cy="610" r="30"/></g><text x="340" y="50" text-anchor="end" class="label">2 × 8 MW</text><text x="340" y="310" text-anchor="end" class="label">1000 KVA</text><text x="340" y="570" text-anchor="end" class="label">30 KVA</text></g>
<path id="system-guide" class="guide" d="M-30 405H210C360 405 360 365 470 365H880C960 365 960 450 1040 450H1350C1440 450 1440 405 1510 405H1840C1920 405 1920 450 1990 450"/><path id="system-current" class="live" d="M-30 405H210C360 405 360 365 470 365H880C960 365 960 450 1040 450H1350C1440 450 1440 405 1510 405H1840C1920 405 1920 450 1990 450"/>
</svg>